Coordinates
version=1
nRows=11
nColumns=36
inDegrees=yes

Units are S.I. units (second, meters, Newtons, ...)
If the header above contains a line with 'inDegrees', this indicates whether rotational values are in degrees (yes) or radians (no).

endheader
time	pelvis_tilt	pelvis_list	pelvis_rotation	pelvis_tx	pelvis_ty	pelvis_tz	hip_flexion_r	hip_adduction_r	hip_rotation_r	knee_angle_r	knee_angle_r_beta	ankle_angle_r	subtalar_angle_r	mtp_angle_r	hip_flexion_l	hip_adduction_l	hip_rotation_l	knee_angle_l	knee_angle_l_beta	ankle_angle_l	subtalar_angle_l	mtp_angle_l	lumbar_extension	lumbar_bending	lumbar_rotation	arm_flex_r	arm_add_r	arm_rot_r	elbow_flex_r	pro_sup_r	arm_flex_l	arm_add_l	arm_rot_l	elbow_flex_l	pro_sup_l
      6.48333330	    -25.30815287	    -13.57760422	     -0.37874482	      0.48237398	      0.75616242	      0.12229232	     71.99170611	     13.34484122	    -11.68405267	     75.30157917	      1.31426049	     45.50131238	      7.47144658	     -7.49999987	     95.68719005	    -13.44174797	     18.42623180	     46.34699617	      0.80890768	     20.65867074	     15.33866970	     -7.49999987	    -21.38090083	     19.82429737	     10.46941568	     43.31714481	    -16.10048511	     71.89052155	    115.37265739	     97.08812978	     37.92223038	     -7.63893582	     68.52019267	    113.64555084	    107.31219975
      6.50000000	    -26.32557812	    -14.13765856	     -0.68776221	      0.48811513	      0.75458539	      0.11951964	     73.18461738	     13.67637416	    -12.30216122	     75.55856720	      1.31874578	     45.75716937	      7.16031390	     -7.49999987	     96.83618460	    -13.57981414	     18.87648217	     46.02203218	      0.80323599	     20.87574193	     15.75651552	     -7.49999987	    -20.27066719	     20.22322515	     10.51027655	     42.69410281	    -16.16538894	     71.93565852	    115.19891080	     96.94624977	     37.60854525	     -7.67499479	     68.76750833	    112.78429114	    107.16035869
      6.51666670	    -26.92745886	    -14.47058142	     -1.06240141	      0.48677873	      0.75330693	      0.11979570	     73.78836391	     13.94898183	    -12.63322473	     75.59221769	      1.31933309	     45.96465362	      7.15559743	     -7.49999987	     97.39918266	    -13.77360585	     19.23694760	     45.59322411	      0.79575188	     20.94691964	     15.93815078	     -7.49999987	    -19.82534685	     20.40292476	     10.76205534	     42.37883572	    -16.27020012	     72.45344214	    114.60126272	     96.22605744	     37.29878565	     -7.64709328	     69.03674667	    111.72802571	    105.71914277
      6.53333330	    -27.35005420	    -14.80961691	     -1.32144936	      0.48160245	      0.74859885	      0.12299329	     74.59695090	     14.19015974	    -13.08019545	     75.93007048	      1.32522973	     46.06345489	      7.14155618	     -7.49999987	     98.09394248	    -13.99295087	     19.52838276	     45.48180459	      0.79380724	     20.96866452	     16.30610149	     -7.49999987	    -19.46804986	     20.39169191	     11.11321359	     42.71984543	    -16.08951217	     72.89520638	    114.72297305	     96.31342762	     37.19249984	     -7.61779601	     69.02111806	    112.02332699	    105.65590425
      6.55000000	    -27.42471436	    -14.94226007	     -1.45372072	      0.48587015	      0.74925563	      0.12033330	     74.72520729	     14.26296669	    -13.31040260	     76.13334484	      1.32877754	     46.22905674	      7.15516748	     -7.49999987	     98.12054398	    -14.10144725	     19.66452514	     45.27339263	      0.79016976	     21.06136093	     16.37558254	     -7.49999987	    -19.62660420	     20.18908540	     11.13381361	     42.65873252	    -16.16271154	     72.96195822	    114.64818125	     96.32095378	     36.92540792	     -7.62467165	     69.07529334	    111.96484785	    105.65521624
      6.56666670	    -28.32558443	    -15.45809550	     -1.87774936	      0.48689759	      0.74715735	      0.12640402	     75.68608655	     14.89418926	    -13.72445875	     76.01263036	      1.32667067	     46.51139002	      7.19854381	     -7.49999987	     99.31425856	    -14.62491906	     19.91524028	     45.44860744	      0.79322784	     21.59892472	     17.43232838	     -7.49999987	    -18.33492844	     20.28079795	     11.60325177	     42.17481219	    -16.03133873	     73.87362001	    114.01110296	     96.50220327	     35.42743954	     -7.49278201	     68.58537440	    111.60022819	    105.55348037
      6.58333330	    -29.05966591	    -15.50381883	     -2.05289824	      0.48572662	      0.74530024	      0.12089670	     76.54449363	     14.79559227	    -13.87039369	     76.25160429	      1.33084155	     46.64850450	      7.05079769	     -7.49999987	    100.08663934	    -14.55379186	     20.08983640	     45.64294974	      0.79661975	     21.65562559	     17.32128814	     -7.49999987	    -17.58387819	     20.28813561	     11.30743045	     42.34646754	    -16.12709670	     74.89569756	    114.57499828	     96.72970174	     34.68068949	     -7.63501856	     68.67370147	    112.06980021	    105.53630056
      6.60000000	    -29.21350384	    -15.70947500	     -2.10499051	      0.49160324	      0.74810037	      0.12335503	     76.41870817	     15.04335181	    -13.95500020	     75.97533722	      1.32601978	     46.86708803	      7.05539805	     -7.49999987	     99.97221878	    -14.67164033	     20.27086917	     45.34460670	      0.79141268	     21.78580324	     17.41072183	     -7.49999987	    -17.38572006	     20.20761753	     11.23078401	     41.80065385	    -16.11901588	     75.18275013	    114.38225365	     96.78198215	     33.80205896	     -7.87029466	     68.95145223	    111.79168045	    105.55099178
      6.61666670	    -30.34355432	    -15.83991901	     -2.41570868	      0.48482512	      0.74247656	      0.12110725	     77.85639721	     14.92374790	    -14.24992534	     76.29880076	      1.33166529	     46.87298277	      7.10334244	     -7.49999987	    101.18441827	    -14.71724707	     20.28809471	     45.43160346	      0.79293106	     21.88554993	     17.84025922	     -7.49999987	    -15.85575733	     20.33930440	     10.91592608	     41.96109913	    -15.93093411	     75.64082891	    114.40223925	     97.08167709	     33.20955450	     -7.79379869	     68.67167630	    112.36407039	    105.56886209
      6.63333330	    -30.82836997	    -15.89987873	     -2.59344560	      0.48532977	      0.74141139	      0.12115813	     78.50074467	     14.85339868	    -14.44046633	     76.50196837	      1.33521123	     46.85334255	      7.17079322	     -7.49999987	    101.71514566	    -14.67226103	     20.49977546	     45.50249778	      0.79416840	     22.00313396	     17.79231687	     -7.49999987	    -15.00726525	     20.40251854	     10.72784384	     42.00126062	    -15.66196910	     75.23430345	    114.43870484	     97.95232692	     32.88021409	     -7.67298700	     68.35074157	    112.90808309	    106.03965647
      6.65000000	    -30.91154377	    -15.82870596	     -2.65873065	      0.47919578	      0.74294302	      0.11846369	     78.71656593	     14.59831021	    -14.54999623	     76.54852541	      1.33602381	     46.73780995	      7.15806211	     -7.49999987	    101.73671596	    -14.59781203	     20.47925059	     45.51120912	      0.79432045	     21.99963262	     17.80718771	     -7.49999987	    -15.11385199	     20.30870534	     10.85347014	     42.27009506	    -15.71007339	     75.04943942	    114.36673915	     97.94174281	     33.08881331	     -7.65016688	     68.11508463	    112.95948877	    106.02794403
